<?xml version="1.0" encoding="UTF-8" standalone="no"?>
<!-- Created with Inkscape (http://www.inkscape.org/) -->

<svg
   width="210mm"
   height="297mm"
   viewBox="0 0 210 297"
   version="1.1"
   id="svg5"
   sodipodi:docname="verkefni4.svg"
   inkscape:version="1.1 (c68e22c387, 2021-05-23)"
   xmlns:inkscape="http://www.inkscape.org/namespaces/inkscape"
   xmlns:sodipodi="http://sodipodi.sourceforge.net/DTD/sodipodi-0.dtd"
   xmlns="http://www.w3.org/2000/svg"
   xmlns:svg="http://www.w3.org/2000/svg">
  <sodipodi:namedview
     id="namedview7"
     pagecolor="#ffffff"
     bordercolor="#666666"
     borderopacity="1.0"
     inkscape:pageshadow="2"
     inkscape:pageopacity="0.0"
     inkscape:pagecheckerboard="0"
     inkscape:document-units="mm"
     showgrid="false"
     inkscape:zoom="0.45858771"
     inkscape:cx="803.55402"
     inkscape:cy="663.99511"
     inkscape:window-width="1920"
     inkscape:window-height="1001"
     inkscape:window-x="-9"
     inkscape:window-y="-9"
     inkscape:window-maximized="1"
     inkscape:current-layer="layer1"
     showguides="true"
     inkscape:guide-bbox="true" />
  <defs
     id="defs2">
    <rect
       x="311.46837"
       y="75.55421"
       width="340.7649"
       height="81.7219"
       id="rect10866" />
    <rect
       x="296.04915"
       y="70.928442"
       width="351.55836"
       height="74.012287"
       id="rect5830" />
    <linearGradient
       id="linearGradient1534"
       inkscape:swatch="solid">
      <stop
         style="stop-color:#000000;stop-opacity:1;"
         offset="0"
         id="stop1532" />
    </linearGradient>
    <filter
       inkscape:collect="always"
       style="color-interpolation-filters:sRGB"
       id="filter1510"
       x="-0.262616"
       y="-0.26734291"
       width="1.525232"
       height="1.5346858">
      <feGaussianBlur
         inkscape:collect="always"
         stdDeviation="12.094879"
         id="feGaussianBlur1512" />
    </filter>
    <filter
       inkscape:collect="always"
       style="color-interpolation-filters:sRGB"
       id="filter3630"
       x="-0.010564008"
       y="-0.011152867"
       width="1.021128"
       height="1.0223057">
      <feGaussianBlur
         inkscape:collect="always"
         stdDeviation="0.54410438"
         id="feGaussianBlur3632" />
    </filter>
    <filter
       inkscape:collect="always"
       style="color-interpolation-filters:sRGB"
       id="filter3925"
       x="-0.0074404108"
       y="-0.033816249"
       width="1.0148808"
       height="1.0676325">
      <feGaussianBlur
         inkscape:collect="always"
         stdDeviation="0.31364377"
         id="feGaussianBlur3927" />
    </filter>
    <filter
       inkscape:collect="always"
       style="color-interpolation-filters:sRGB"
       id="filter6504"
       x="-0.0013464548"
       y="-0.0012918243"
       width="1.0026929"
       height="1.0025836">
      <feGaussianBlur
         inkscape:collect="always"
         stdDeviation="0.31385613"
         id="feGaussianBlur6506" />
    </filter>
  </defs>
  <g
     inkscape:label="Layer 1"
     inkscape:groupmode="layer"
     id="layer1">
    <g
       id="panel6713">
      <path
         style="fill:none;stroke:#000000;stroke-width:1"
         d="M 58.4 128.9 L 75.58 128.9 L 75.58 125.8 L 88.28 125.8 L 88.28 128.9 L 105.36 128.9 L 105.36 125.8 L 118.06 125.8 L 118.06 128.9 L 135.14 128.9 L 135.14 125.8 L 147.84 125.8 L 147.84 128.9 L 164.92 128.9 L 164.92 125.8 L 177.62 125.8 L 177.62 128.9 L 194.8 128.9"
         id="path1572" />
      <path
         style="fill:none;stroke:#000000;stroke-width:1"
         d="M 194.8 128.9 L 194.8 147.85 L 191.7 147.85 L 191.7 160.15 L 194.8 160.15 L 194.8 179.1"
         id="path1574" />
      <path
         style="fill:none;stroke:#000000;stroke-width:1"
         d="M 194.8 179.1 L 177.62 179.1 L 177.62 182.2 L 164.92 182.2 L 164.92 179.1 L 147.84 179.1 L 147.84 182.2 L 135.14 182.2 L 135.14 179.1 L 118.06 179.1 L 118.06 182.2 L 105.36 182.2 L 105.36 179.1 L 88.28 179.1 L 88.28 182.2 L 75.58 182.2 L 75.58 179.1 L 58.4 179.1"
         id="path1576" />
      <path
         style="fill:none;stroke:#000000;stroke-width:1"
         d="M 58.4 179.1 L 58.4 160.15 L 61.5 160.15 L 61.5 147.85 L 58.4 147.85 L 58.4 128.9"
         id="path1578" />
    </g>
    <g
       id="panel6622">
      <path
         style="fill:none;stroke:#000000;stroke-width:1"
         d="M 4.1 61.5 L 22.85 61.5 L 22.85 58.4 L 35.55 58.4 L 35.55 61.5 L 54.3 61.5"
         id="path1581" />
      <path
         style="fill:none;stroke:#000000;stroke-width:1"
         d="M 54.3 61.5 L 54.3 72.1 L 57.4 72.1 L 57.4 84.8 L 54.3 84.8 L 54.3 98.4 L 57.4 98.4 L 57.4 111.1 L 54.3 111.1 L 54.3 121.7"
         id="path1583" />
      <path
         style="fill:none;stroke:#000000;stroke-width:1"
         d="M 54.3 121.7 L 35.55 121.7 L 35.55 124.8 L 22.85 124.8 L 22.85 121.7 L 4.1 121.7"
         id="path1585" />
      <path
         style="fill:none;stroke:#000000;stroke-width:1"
         d="M 4.1 121.7 L 4.1 111.1 L 1 111.1 L 1 98.4 L 4.1 98.4 L 4.1 84.8 L 1 84.8 L 1 72.1 L 4.1 72.1 L 4.1 61.5"
         id="path1587" />
    </g>
    <g
       id="panel9146">
      <path
         style="fill:none;stroke:#000000;stroke-width:1"
         d="M 58.4 58.4 L 75.78 58.4 L 75.78 61.5 L 88.08 61.5 L 88.08 58.4 L 105.56 58.4 L 105.56 61.5 L 117.86 61.5 L 117.86 58.4 L 135.34 58.4 L 135.34 61.5 L 147.64 61.5 L 147.64 58.4 L 165.12 58.4 L 165.12 61.5 L 177.42 61.5 L 177.42 58.4 L 194.8 58.4"
         id="path1590" />
      <path
         style="fill:none;stroke:#000000;stroke-width:1"
         d="M 194.8 58.4 L 194.8 72.3 L 191.7 72.3 L 191.7 84.6 L 194.8 84.6 L 194.8 98.6 L 191.7 98.6 L 191.7 110.9 L 194.8 110.9 L 194.8 124.8"
         id="path1592" />
      <path
         style="fill:none;stroke:#000000;stroke-width:1"
         d="M 194.8 124.8 L 177.42 124.8 L 177.42 121.7 L 165.12 121.7 L 165.12 124.8 L 147.64 124.8 L 147.64 121.7 L 135.34 121.7 L 135.34 124.8 L 117.86 124.8 L 117.86 121.7 L 105.56 121.7 L 105.56 124.8 L 88.08 124.8 L 88.08 121.7 L 75.78 121.7 L 75.78 124.8 L 58.4 124.8"
         id="path1594" />
      <path
         style="fill:none;stroke:#000000;stroke-width:1"
         d="M 58.4 124.8 L 58.4 110.9 L 61.5 110.9 L 61.5 98.6 L 58.4 98.6 L 58.4 84.6 L 61.5 84.6 L 61.5 72.3 L 58.4 72.3 L 58.4 58.4"
         id="path1596" />
    </g>
    <g
       id="panel6820">
      <path
         style="fill:none;stroke:#000000;stroke-width:1"
         d="M 198.9 61.5 L 217.65 61.5 L 217.65 58.4 L 230.35 58.4 L 230.35 61.5 L 249.1 61.5"
         id="path1599" />
      <path
         style="fill:none;stroke:#000000;stroke-width:1"
         d="M 249.1 61.5 L 249.1 72.1 L 252.2 72.1 L 252.2 84.8 L 249.1 84.8 L 249.1 98.4 L 252.2 98.4 L 252.2 111.1 L 249.1 111.1 L 249.1 121.7"
         id="path1601" />
      <path
         style="fill:none;stroke:#000000;stroke-width:1"
         d="M 249.1 121.7 L 230.35 121.7 L 230.35 124.8 L 217.65 124.8 L 217.65 121.7 L 198.9 121.7"
         id="path1603" />
      <path
         style="fill:none;stroke:#000000;stroke-width:1"
         d="M 198.9 121.7 L 198.9 111.1 L 195.8 111.1 L 195.8 98.4 L 198.9 98.4 L 198.9 84.8 L 195.8 84.8 L 195.8 72.1 L 198.9 72.1 L 198.9 61.5"
         id="path1605" />
    </g>
    <g
       id="panel6384">
      <path
         style="fill:none;stroke:#000000;stroke-width:1"
         d="M 253.2 58.4 L 270.58 58.4 L 270.58 61.5 L 282.88 61.5 L 282.88 58.4 L 300.36 58.4 L 300.36 61.5 L 312.66 61.5 L 312.66 58.4 L 330.14 58.4 L 330.14 61.5 L 342.44 61.5 L 342.44 58.4 L 359.92 58.4 L 359.92 61.5 L 372.22 61.5 L 372.22 58.4 L 389.6 58.4"
         id="path1608" />
      <path
         style="fill:none;stroke:#000000;stroke-width:1"
         d="M 389.6 58.4 L 389.6 72.3 L 386.5 72.3 L 386.5 84.6 L 389.6 84.6 L 389.6 98.6 L 386.5 98.6 L 386.5 110.9 L 389.6 110.9 L 389.6 124.8"
         id="path1610" />
      <path
         style="fill:none;stroke:#000000;stroke-width:1"
         d="M 389.6 124.8 L 372.22 124.8 L 372.22 121.7 L 359.92 121.7 L 359.92 124.8 L 342.44 124.8 L 342.44 121.7 L 330.14 121.7 L 330.14 124.8 L 312.66 124.8 L 312.66 121.7 L 300.36 121.7 L 300.36 124.8 L 282.88 124.8 L 282.88 121.7 L 270.58 121.7 L 270.58 124.8 L 253.2 124.8"
         id="path1612" />
      <path
         style="fill:none;stroke:#000000;stroke-width:1"
         d="M 253.2 124.8 L 253.2 110.9 L 256.3 110.9 L 256.3 98.6 L 253.2 98.6 L 253.2 84.6 L 256.3 84.6 L 256.3 72.3 L 253.2 72.3 L 253.2 58.4"
         id="path1614" />
    </g>
    <g
       id="panel3808">
      <path
         style="fill:none;stroke:#000000;stroke-width:1"
         d="M 58.4 4.1 L 75.58 4.1 L 75.58 1 L 88.28 1 L 88.28 4.1 L 105.36 4.1 L 105.36 1 L 118.06 1 L 118.06 4.1 L 135.14 4.1 L 135.14 1 L 147.84 1 L 147.84 4.1 L 164.92 4.1 L 164.92 1 L 177.62 1 L 177.62 4.1 L 194.8 4.1"
         id="path1617" />
      <path
         style="fill:none;stroke:#000000;stroke-width:1"
         d="M 194.8 4.1 L 194.8 23.05 L 191.7 23.05 L 191.7 35.35 L 194.8 35.35 L 194.8 54.3"
         id="path1619" />
      <path
         style="fill:none;stroke:#000000;stroke-width:1"
         d="M 194.8 54.3 L 177.62 54.3 L 177.62 57.4 L 164.92 57.4 L 164.92 54.3 L 147.84 54.3 L 147.84 57.4 L 135.14 57.4 L 135.14 54.3 L 118.06 54.3 L 118.06 57.4 L 105.36 57.4 L 105.36 54.3 L 88.28 54.3 L 88.28 57.4 L 75.58 57.4 L 75.58 54.3 L 58.4 54.3"
         id="path1621" />
      <path
         style="fill:none;stroke:#000000;stroke-width:1"
         d="M 58.4 54.3 L 58.4 35.35 L 61.5 35.35 L 61.5 23.05 L 58.4 23.05 L 58.4 4.1"
         id="path1623" />
    </g>
    <text
       xml:space="preserve"
       transform="scale(0.26458333)"
       id="text5828"
       style="line-height:1.25;font-family:Sans;font-size:24px;-inkscape-font-specification:'Sans, Normal';font-variant-ligatures:none;white-space:pre;shape-inside:url(#rect5830)" />
    <g
       aria-label="Szymon"
       transform="matrix(0.60796074,0,0,0.66182924,-92.803727,-30.838602)"
       id="text10864"
       style="font-style:italic;font-size:24px;line-height:1.25;-inkscape-font-specification:'sans-serif, Italic';font-variant-ligatures:none;white-space:pre;shape-inside:url(#rect10866)">
      <path
         d="m 318.32422,97.767021 q -1.69922,0 -3.23438,-0.351562 -1.53515,-0.363281 -3.01172,-1.101563 l 0.5625,-2.660156 h 0.16407 q 1.125,1.066406 2.7539,1.640625 1.64063,0.5625 3.16407,0.5625 2.49609,0 3.82031,-0.984375 1.33594,-0.996094 1.33594,-2.53125 0,-0.808594 -0.48047,-1.347656 -0.46875,-0.539063 -1.38282,-0.796875 -0.76171,-0.210938 -1.8164,-0.398438 -1.04297,-0.199218 -1.99219,-0.421875 -1.83984,-0.410156 -2.84766,-1.40625 -1.00781,-0.996093 -1.00781,-2.472656 0,-2.496094 2.10938,-4.148437 2.12109,-1.664063 5.47265,-1.664063 1.82813,0 3.31641,0.386719 1.5,0.375 2.57812,0.890625 l -0.52734,2.496094 h -0.16406 q -0.83203,-0.761719 -2.37891,-1.3125 -1.53515,-0.550782 -3.23437,-0.550782 -2.13282,0 -3.41016,0.9375 -1.26562,0.9375 -1.26562,2.378907 0,0.773437 0.45703,1.359375 0.45703,0.585937 1.6289,0.878906 0.75,0.175781 1.99219,0.433594 1.24219,0.246093 2.08594,0.46875 1.66406,0.457031 2.51953,1.359375 0.86719,0.902343 0.86719,2.273437 0,1.148438 -0.5625,2.285156 -0.5625,1.136719 -1.57032,1.945313 -1.07812,0.867187 -2.53125,1.359375 -1.4414,0.492187 -3.41015,0.492187 z"
         id="path11166" />
      <path
         d="m 338.08203,97.450615 h -10.57031 l 0.375,-1.628906 9.72656,-9.703125 H 330.125 l 0.41016,-1.757813 h 10.2539 l -0.36328,1.570313 -9.77344,9.761719 h 7.83985 z"
         id="path11168" />
      <path
         d="m 343.50781,102.27874 h -2.42578 l 3.80859,-5.589844 -2.36718,-12.328125 h 2.26172 l 1.85156,9.738282 6.25781,-9.738282 h 2.40234 z"
         id="path11170" />
      <path
         d="m 376.60156,87.255303 q 0,0.386718 -0.0586,0.820312 -0.0469,0.433594 -0.15235,0.878906 l -1.96875,8.496094 h -2.20312 l 1.72266,-7.453125 q 0.14062,-0.621094 0.22265,-1.148437 0.0937,-0.527344 0.0937,-0.984375 0,-0.890625 -0.44531,-1.371094 -0.44531,-0.480469 -1.69922,-0.480469 -0.92578,0 -1.95703,0.515625 -1.03125,0.515625 -2.05078,1.207031 -0.0234,0.292969 -0.082,0.667969 -0.0469,0.375 -0.11719,0.667969 l -1.93359,8.378906 h -2.20313 l 1.72266,-7.453125 q 0.15234,-0.726562 0.24609,-1.183594 0.0937,-0.46875 0.0937,-0.949218 0,-1.066407 -0.58594,-1.453125 -0.58593,-0.398438 -1.58203,-0.398438 -0.70312,0 -1.57031,0.363281 -0.86719,0.351563 -2.30859,1.300782 l -2.26172,9.773437 h -2.20313 l 3.02344,-13.089844 h 2.20312 l -0.33984,1.453125 q 1.23047,-0.855468 2.27344,-1.335937 1.05469,-0.480469 2.21484,-0.480469 1.32422,0 2.14453,0.5625 0.83203,0.5625 1.10157,1.558594 1.54687,-1.125 2.77734,-1.617188 1.23047,-0.503906 2.42578,-0.503906 1.72266,0 2.58984,0.855469 0.86719,0.855469 0.86719,2.402344 z"
         id="path11172" />
      <path
         d="m 391.54297,88.989678 q 0,1.757812 -0.53906,3.375 -0.53907,1.617187 -1.52344,2.8125 -1.01953,1.242187 -2.35547,1.945312 -1.33594,0.691406 -3.11719,0.691406 -2.33203,0 -3.64453,-1.324218 -1.30078,-1.335938 -1.30078,-3.679688 0,-1.757812 0.52734,-3.351562 0.53907,-1.59375 1.54688,-2.835938 0.97265,-1.195312 2.3789,-1.910156 1.41797,-0.714844 3.09375,-0.714844 2.26172,0 3.59766,1.289063 1.33594,1.289062 1.33594,3.703125 z m -3.58594,4.945312 q 0.63281,-0.9375 0.96094,-2.167969 0.33984,-1.230468 0.33984,-2.601562 0,-1.640625 -0.78515,-2.484375 -0.78516,-0.84375 -2.21485,-0.84375 -1.13672,0 -2.03906,0.550781 -0.90234,0.539063 -1.55859,1.488281 -0.63282,0.925782 -0.97266,2.167969 -0.33984,1.242188 -0.33984,2.578125 0,1.617188 0.78515,2.484375 0.78516,0.867188 2.22656,0.867188 1.125,0 2.03907,-0.539063 0.91406,-0.539062 1.55859,-1.5 z"
         id="path11174" />
      <path
         d="m 406.35547,87.349053 q 0,0.28125 -0.0586,0.761718 -0.0469,0.480469 -0.14062,0.84375 l -1.96875,8.496094 h -2.20313 l 1.72266,-7.453125 q 0.14063,-0.621094 0.21094,-1.078125 0.082,-0.46875 0.082,-0.925781 0,-0.984375 -0.49219,-1.476563 -0.48047,-0.503906 -1.74609,-0.503906 -0.89063,0 -1.96875,0.492188 -1.06641,0.492187 -2.08594,1.171875 l -2.26172,9.773437 h -2.20312 l 3.02343,-13.089844 h 2.20313 l -0.33984,1.453125 q 1.2539,-0.878906 2.34375,-1.347656 1.10156,-0.46875 2.26171,-0.46875 1.71094,0 2.66016,0.867188 0.96094,0.855468 0.96094,2.484375 z"
         id="path11176" />
    </g>
    <g
       id="g12704"
       transform="translate(-1.2239011,-6.731456)">
      <g
         id="g12670"
         transform="translate(0,2.8557692)">
        <path
           style="fill:#ff0000;fill-opacity:0;stroke:#000000;stroke-width:0.5;stroke-miterlimit:4;stroke-dasharray:none;stroke-opacity:1"
           id="path11478"
           sodipodi:type="arc"
           sodipodi:cx="91.180634"
           sodipodi:cy="88.528847"
           sodipodi:rx="2.5"
           sodipodi:ry="2.5"
           sodipodi:start="0.012435628"
           sodipodi:end="6.1878729"
           sodipodi:open="true"
           sodipodi:arc-type="arc"
           d="m 93.68044,88.559935 a 2.5,2.5 0 0 1 -2.463554,2.468649 2.5,2.5 0 0 1 -2.534106,-2.396171 2.5,2.5 0 0 1 2.327048,-2.597725 2.5,2.5 0 0 1 2.659459,2.256238" />
        <path
           style="fill:#ff0000;fill-opacity:0;stroke:#000000;stroke-width:0.49;stroke-miterlimit:4;stroke-dasharray:none;stroke-opacity:1"
           id="path12586"
           sodipodi:type="arc"
           sodipodi:cx="91.180634"
           sodipodi:cy="100.97184"
           sodipodi:rx="3.75"
           sodipodi:ry="3.75"
           sodipodi:start="0.012435628"
           sodipodi:end="6.1878729"
           sodipodi:open="true"
           sodipodi:arc-type="arc"
           d="m 94.930344,101.01847 a 3.75,3.75 0 0 1 -3.695332,3.70298 3.75,3.75 0 0 1 -3.801159,-3.59426 3.75,3.75 0 0 1 3.490573,-3.896588 3.75,3.75 0 0 1 3.989187,3.384358" />
      </g>
      <g
         id="g12676"
         transform="translate(73.536059,2.8557692)">
        <path
           style="fill:#ff0000;fill-opacity:0;stroke:#000000;stroke-width:0.5;stroke-miterlimit:4;stroke-dasharray:none;stroke-opacity:1"
           id="path12672"
           sodipodi:type="arc"
           sodipodi:cx="91.180634"
           sodipodi:cy="88.528847"
           sodipodi:rx="2.5"
           sodipodi:ry="2.5"
           sodipodi:start="0.012435628"
           sodipodi:end="6.1878729"
           sodipodi:open="true"
           sodipodi:arc-type="arc"
           d="m 93.68044,88.559935 a 2.5,2.5 0 0 1 -2.463554,2.468649 2.5,2.5 0 0 1 -2.534106,-2.396171 2.5,2.5 0 0 1 2.327048,-2.597725 2.5,2.5 0 0 1 2.659459,2.256238" />
        <path
           style="fill:#ff0000;fill-opacity:0;stroke:#000000;stroke-width:0.49;stroke-miterlimit:4;stroke-dasharray:none;stroke-opacity:1"
           id="path12674"
           sodipodi:type="arc"
           sodipodi:cx="91.180634"
           sodipodi:cy="100.97184"
           sodipodi:rx="3.75"
           sodipodi:ry="3.75"
           sodipodi:start="0.012435628"
           sodipodi:end="6.1878729"
           sodipodi:open="true"
           sodipodi:arc-type="arc"
           d="m 94.930344,101.01847 a 3.75,3.75 0 0 1 -3.695332,3.70298 3.75,3.75 0 0 1 -3.801159,-3.59426 3.75,3.75 0 0 1 3.490573,-3.896588 3.75,3.75 0 0 1 3.989187,3.384358" />
      </g>
      <g
         id="g12682"
         transform="translate(48.650069,2.957761)">
        <path
           style="fill:#ff0000;fill-opacity:0;stroke:#000000;stroke-width:0.5;stroke-miterlimit:4;stroke-dasharray:none;stroke-opacity:1"
           id="path12678"
           sodipodi:type="arc"
           sodipodi:cx="91.180634"
           sodipodi:cy="88.528847"
           sodipodi:rx="2.5"
           sodipodi:ry="2.5"
           sodipodi:start="0.012435628"
           sodipodi:end="6.1878729"
           sodipodi:open="true"
           sodipodi:arc-type="arc"
           d="m 93.68044,88.559935 a 2.5,2.5 0 0 1 -2.463554,2.468649 2.5,2.5 0 0 1 -2.534106,-2.396171 2.5,2.5 0 0 1 2.327048,-2.597725 2.5,2.5 0 0 1 2.659459,2.256238" />
        <path
           style="fill:#ff0000;fill-opacity:0;stroke:#000000;stroke-width:0.49;stroke-miterlimit:4;stroke-dasharray:none;stroke-opacity:1"
           id="path12680"
           sodipodi:type="arc"
           sodipodi:cx="91.180634"
           sodipodi:cy="100.97184"
           sodipodi:rx="3.75"
           sodipodi:ry="3.75"
           sodipodi:start="0.012435628"
           sodipodi:end="6.1878729"
           sodipodi:open="true"
           sodipodi:arc-type="arc"
           d="m 94.930344,101.01847 a 3.75,3.75 0 0 1 -3.695332,3.70298 3.75,3.75 0 0 1 -3.801159,-3.59426 3.75,3.75 0 0 1 3.490573,-3.896588 3.75,3.75 0 0 1 3.989187,3.384358" />
      </g>
      <g
         id="g12688"
         transform="translate(23.611092,3.0087569)">
        <path
           style="fill:#ff0000;fill-opacity:0;stroke:#000000;stroke-width:0.5;stroke-miterlimit:4;stroke-dasharray:none;stroke-opacity:1"
           id="path12684"
           sodipodi:type="arc"
           sodipodi:cx="91.180634"
           sodipodi:cy="88.528847"
           sodipodi:rx="2.5"
           sodipodi:ry="2.5"
           sodipodi:start="0.012435628"
           sodipodi:end="6.1878729"
           sodipodi:open="true"
           sodipodi:arc-type="arc"
           d="m 93.68044,88.559935 a 2.5,2.5 0 0 1 -2.463554,2.468649 2.5,2.5 0 0 1 -2.534106,-2.396171 2.5,2.5 0 0 1 2.327048,-2.597725 2.5,2.5 0 0 1 2.659459,2.256238" />
        <path
           style="fill:#ff0000;fill-opacity:0;stroke:#000000;stroke-width:0.49;stroke-miterlimit:4;stroke-dasharray:none;stroke-opacity:1"
           id="path12686"
           sodipodi:type="arc"
           sodipodi:cx="91.180634"
           sodipodi:cy="100.97184"
           sodipodi:rx="3.75"
           sodipodi:ry="3.75"
           sodipodi:start="0.012435628"
           sodipodi:end="6.1878729"
           sodipodi:open="true"
           sodipodi:arc-type="arc"
           d="m 94.930344,101.01847 a 3.75,3.75 0 0 1 -3.695332,3.70298 3.75,3.75 0 0 1 -3.801159,-3.59426 3.75,3.75 0 0 1 3.490573,-3.896588 3.75,3.75 0 0 1 3.989187,3.384358" />
      </g>
    </g>
    <g
       inkscape:label="Layer 1"
       id="layer1-9"
       transform="matrix(0.89418804,0,0,0.85534218,386.39539,15.555493)">
      <path
         style="color:#000000;opacity:0.755027;fill:#ff1300;-inkscape-stroke:none;filter:url(#filter6504)"
         d="m -393.26953,343.95898 c -0.0454,0.65404 -0.1566,1.25744 -0.90645,1.36956 -61.42053,28.27128 -122.84101,56.5427 -184.26152,84.81404 60.03623,31.68011 120.07426,63.35683 180.10938,95.03906 7.93925,67.41531 15.87752,134.83074 23.8164,202.24609 48.68005,-47.30888 97.3624,-94.61541 146.04102,-141.92578 66.56917,13.285 133.139401,26.5647 199.708981,39.84766 -29.949624,-60.91744 -59.901213,-121.83391 -89.849611,-182.75195 33.20141,-59.208 66.406538,-118.41391 99.609377,-177.6211 -67.190813,9.65911 -134.381167,19.32142 -201.572267,28.97852 -46.04945,-49.87313 -92.09755,-99.74749 -138.14648,-149.6211 -11.51628,66.54167 -23.03256,133.08334 -34.54883,199.625 z"
         id="path846"
         transform="matrix(0.08909847,0,0,0.08803947,-46.090618,49.469996)"
         inkscape:export-filename="C:\Users\4360s\Desktop\logo"
         inkscape:export-xdpi="96"
         inkscape:export-ydpi="96" />
      <path
         style="opacity:1;mix-blend-mode:normal;fill:#eefe00;fill-opacity:1;filter:url(#filter3630)"
         id="path950"
         sodipodi:type="arc"
         sodipodi:cx="-58.208332"
         sodipodi:cy="95.584938"
         sodipodi:rx="61.806587"
         sodipodi:ry="58.54327"
         sodipodi:start="0"
         sodipodi:end="6.1878729"
         sodipodi:open="true"
         sodipodi:arc-type="arc"
         d="M 3.5982552,95.584938 A 61.806587,58.54327 0 0 1 -56.735738,154.11159 61.806587,58.54327 0 0 1 -119.94475,98.373832 61.806587,58.54327 0 0 1 -62.622771,37.191182 61.806587,58.54327 0 0 1 3.317728,90.013483"
         transform="matrix(0.36900746,0,0,0.36720323,-48.635275,52.544013)"
         inkscape:export-filename="C:\Users\4360s\Desktop\logo"
         inkscape:export-xdpi="96"
         inkscape:export-ydpi="96" />
      <path
         style="opacity:1;mix-blend-mode:normal;fill:#ff6900;fill-opacity:1;filter:url(#filter1510)"
         id="path1188"
         sodipodi:type="arc"
         sodipodi:cx="105.26792"
         sodipodi:cy="123.28928"
         sodipodi:rx="55.266453"
         sodipodi:ry="54.289284"
         sodipodi:start="0"
         sodipodi:end="6.1878729"
         sodipodi:open="true"
         sodipodi:arc-type="arc"
         d="M 160.53437,123.28928 A 55.266453,54.289284 0 0 1 106.58469,177.56316 55.266453,54.289284 0 0 1 50.064215,125.87553 55.266453,54.289284 0 0 1 101.3206,69.13865 55.266453,54.289284 0 0 1 160.28353,118.12267"
         transform="matrix(0.32793855,0,0,0.31150541,-103.31308,49.943627)"
         inkscape:export-filename="C:\Users\4360s\Desktop\logo"
         inkscape:export-xdpi="96"
         inkscape:export-ydpi="96" />
      <text
         xml:space="preserve"
         style="font-style:italic;font-variant:normal;font-weight:bold;font-stretch:normal;font-size:26.9623px;line-height:1.25;font-family:'Comic Sans MS';-inkscape-font-specification:'Comic Sans MS, Bold Italic';font-variant-ligatures:none;font-variant-caps:normal;font-variant-numeric:normal;font-variant-east-asian:normal;opacity:1;mix-blend-mode:normal;fill:#00aa43;fill-opacity:1;stroke:#ff0000;stroke-width:0.237902;stroke-opacity:1;filter:url(#filter3925)"
         x="55.94738"
         y="127.72028"
         id="text4417"
         transform="matrix(0.38378052,-0.12701688,0.11031573,0.42822816,-127.203,49.028754)"
         inkscape:export-filename="C:\Users\4360s\Desktop\logo"
         inkscape:export-xdpi="96"
         inkscape:export-ydpi="96"><tspan
           sodipodi:role="line"
           id="tspan4415"
           style="font-style:normal;font-variant:normal;font-weight:normal;font-stretch:normal;font-size:26.9623px;font-family:'Segoe Script';-inkscape-font-specification:'Segoe Script, Normal';font-variant-ligatures:none;font-variant-caps:normal;font-variant-numeric:normal;font-variant-east-asian:normal;fill:#00aa43;fill-opacity:1;stroke:#ff0000;stroke-width:0.237902;stroke-opacity:1"
           x="55.94738"
           y="127.72028">Szymon</tspan></text>
    </g>
  </g>
</svg>
